<?xml version="1.0" standalone="no"?>
<!DOCTYPE svg PUBLIC "-//W3C//DTD SVG 20010904//EN"
 "http://www.w3.org/TR/2001/REC-SVG-20010904/DTD/svg10.dtd">
<svg version="1.0" xmlns="http://www.w3.org/2000/svg"
 width="192.000000pt" height="192.000000pt" viewBox="0 0 192.000000 192.000000"
 preserveAspectRatio="xMidYMid meet">
<metadata>
Created by potrace 1.14, written by Peter Selinger 2001-2017
</metadata>
<g transform="translate(0.000000,192.000000) scale(0.100000,-0.100000)"
fill="#000000" stroke="none">
<path d="M815 1865 c-353 -52 -643 -314 -736 -662 -16 -59 -21 -109 -22 -208
0 -114 3 -150 16 -215 31 -146 131 -324 245 -437 113 -112 310 -219 442 -239
19 -3 53 -9 75 -13 65 -12 226 -5 306 14 363 82 628 359 694 725 13 72 13 249
0 315 -32 160 -118 331 -227 446 -50 52 -167 149 -182 149 -5 0 -17 7 -25 14
-26 24 -155 75 -242 97 -97 24 -238 30 -344 14z"/>
</g>
</svg>
